<?xml version="1.0" encoding="UTF-8"?>
<svg width="800px" height="800px" version="1.1" viewBox="0 0 32 32" xmlns="http://www.w3.org/2000/svg">
<title>comment-4</title>
<desc>Created with Sketch Beta.</desc>
<g fill="none" fill-rule="evenodd">
<g transform="translate(-308 -255)" fill="#000">
<path d="m327.49 279.63-3.494 4.367-3.494-4.367c-6.042-1.278-10.514-5.77-10.514-11.132 0-6.355 6.272-11.507 14.008-11.507s14.008 5.152 14.008 11.507c0 5.362-4.472 9.854-10.514 11.132zm-3.494-24.633c-8.837 0-16 6.143-16 13.72 0 6.249 4.877 11.512 11.542 13.169l4.458 5.112 4.459-5.112c6.664-1.657 11.541-6.92 11.541-13.169 0-7.577-7.163-13.72-16-13.72z"></path>
</g>
</g>
</svg>
